HIERARCHY
ROOT Hips
{
	OFFSET 0.000000 0.000000 0.000000
	CHANNELS 6 Xposition Yposition Zposition Zrotation Yrotation Xrotation 
	JOINT LHipJoint
	{
		OFFSET 0.000000 0.000000 0.000000
		CHANNELS 3 Zrotation Yrotation Xrotation
		JOINT LeftUpLeg
		{
			OFFSET 1.363060 -1.794630 0.839290
			CHANNELS 3 Zrotation Yrotation Xrotation
			JOINT LeftLeg
			{
				OFFSET 2.448110 -6.726130 0.000000
				CHANNELS 3 Zrotation Yrotation Xrotation
				JOINT LeftFoot
				{
					OFFSET 2.562200 -7.039590 0.000000
					CHANNELS 3 Zrotation Yrotation Xrotation
					JOINT LeftToeBase
					{
						OFFSET 0.157640 -0.433110 2.322550
						CHANNELS 3 Zrotation Yrotation Xrotation
						End Site
						{
							OFFSET 0.000000 0.000000 0.000000
						}
					}
				}
			}
		}
	}
	JOINT RHipJoint
	{
		OFFSET 0.000000 0.000000 0.000000
		CHANNELS 3 Zrotation Yrotation Xrotation
		JOINT RightUpLeg
		{
			OFFSET -1.305520 -1.794630 0.839290
			CHANNELS 3 Zrotation Yrotation Xrotation
			JOINT RightLeg
			{
				OFFSET -2.542530 -6.985550 0.000000
				CHANNELS 3 Zrotation Yrotation Xrotation
				JOINT RightFoot
				{
					OFFSET -2.568260 -7.056230 0.000000
					CHANNELS 3 Zrotation Yrotation Xrotation
					JOINT RightToeBase
					{
						OFFSET -0.164730 -0.452590 2.363150
						CHANNELS 3 Zrotation Yrotation Xrotation
						End Site
						{
							OFFSET 0.000000 0.000000 0.000000
						}
					}
				}
			}
		}
	}
	JOINT LowerBack
	{
		OFFSET 0.000000 0.000000 0.000000
		CHANNELS 3 Zrotation Yrotation Xrotation
		JOINT Spine
		{
			OFFSET 0.028270 2.035590 -0.193380
			CHANNELS 3 Zrotation Yrotation Xrotation
			JOINT Spine1
			{
				OFFSET 0.056720 2.048850 -0.042750
				CHANNELS 3 Zrotation Yrotation Xrotation
				JOINT Neck
				{
					OFFSET 0.000000 0.000000 0.000000
					CHANNELS 3 Zrotation Yrotation Xrotation
					JOINT Neck1
					{
						OFFSET -0.054170 1.746240 0.172020
						CHANNELS 3 Zrotation Yrotation Xrotation
						JOINT Head
						{
							OFFSET 0.104070 1.761360 -0.123970
							CHANNELS 3 Zrotation Yrotation Xrotation
							End Site
							{
								OFFSET 0.000000 0.000000 0.000000
							}
						}
					}
				}
				JOINT LeftShoulder
				{
					OFFSET 0.000000 0.000000 0.000000
					CHANNELS 3 Zrotation Yrotation Xrotation
					JOINT LeftArm
					{
						OFFSET 3.362410 1.200890 -0.311210
						CHANNELS 3 Zrotation Yrotation Xrotation
						JOINT LeftForeArm
						{
							OFFSET 4.983000 -0.000000 -0.000000
							CHANNELS 3 Zrotation Yrotation Xrotation
							JOINT LeftHand
							{
								OFFSET 3.483560 -0.000000 -0.000000
								CHANNELS 3 Zrotation Yrotation Xrotation
								JOINT LeftFingerBase
								{
									OFFSET 0.000000 0.000000 0.000000
									CHANNELS 3 Zrotation Yrotation Xrotation
									JOINT LeftHandIndex1
									{
										OFFSET 0.715260 -0.000000 -0.000000
										CHANNELS 3 Zrotation Yrotation Xrotation
										End Site
										{
											OFFSET 0.000000 0.000000 0.000000
										}
									}
								}
								JOINT LThumb
								{
									OFFSET 0.000000 0.000000 0.000000
									CHANNELS 3 Zrotation Yrotation Xrotation
									End Site
									{
										OFFSET 0.000000 0.000000 0.000000
									}
								}
							}
						}
					}
				}
				JOINT RightShoulder
				{
					OFFSET 0.000000 0.000000 0.000000
					CHANNELS 3 Zrotation Yrotation Xrotation
					JOINT RightArm
					{
						OFFSET -3.136600 1.374050 -0.404650
						CHANNELS 3 Zrotation Yrotation Xrotation
						JOINT RightForeArm
						{
							OFFSET -5.241900 -0.000000 -0.000000
							CHANNELS 3 Zrotation Yrotation Xrotation
							JOINT RightHand
							{
								OFFSET -3.444170 -0.000000 -0.000000
								CHANNELS 3 Zrotation Yrotation Xrotation
								JOINT RightFingerBase
								{
									OFFSET 0.000000 0.000000 0.000000
									CHANNELS 3 Zrotation Yrotation Xrotation
									JOINT RightHandIndex1
									{
										OFFSET -0.622530 -0.000000 -0.000000
										CHANNELS 3 Zrotation Yrotation Xrotation
										End Site
										{
											OFFSET 0.000000 0.000000 0.000000
										}
									}
								}
								JOINT RThumb
								{
									OFFSET 0.000000 0.000000 0.000000
									CHANNELS 3 Zrotation Yrotation Xrotation
									End Site
									{
										OFFSET 0.000000 0.000000 0.000000
									}
								}
							}
						}
					}
				}
			}
		}
	}
}
MOTION
Frames: 9
Frame Time: 0.008333
-38.812783 17.497589 2.345186 -175.058084 1.879445 -171.724684 20.142854 3.000634 -2.302684 -38.718929 -38.372470 16.380924 -11.492623 -2.558538 -2.980713 4.722409 -17.473770 -37.138353 0.305000 -3.550700 -9.816000 -24.506988 -2.918086 -3.843267 53.623533 29.188199 19.578759 14.771557 6.137029 -9.023302 -3.956188 -27.449272 -48.577446 -3.486700 -11.444100 33.792600 -1.591315 -0.974238 8.618805 3.591476 -0.782584 -4.819707 9.860778 1.218072 -14.187265 -6.425362 -0.967246 -20.181794 5.217472 2.062340 16.652179 2.263800 1.161400 12.318900 9.238708 -7.215964 1.346268 -94.746037 16.658696 20.498257 21.315503 -35.049950 -6.730908 0.255819 3.389551 0.037415 27.208031 29.264013 12.395100 -7.125000 0.000000 0.000000 -3.003900 58.113100 -0.964400 -9.668169 6.742037 2.138119 71.468594 -11.212819 51.961444 -21.974250 34.669134 -5.698090 0.001443 -3.368108 -14.767185 -29.539342 -25.026522 11.349300 7.125000 0.000000 0.000000 -0.064000 -54.109900 0.014300 
-38.813750 17.501029 2.340887 -175.063215 1.850853 -171.795456 20.128983 3.029808 -2.287846 -38.600361 -37.998539 16.177595 -11.580973 -2.621154 -3.126584 4.725299 -15.925366 -37.209786 0.338600 -3.739600 -10.345200 -24.295576 -2.940252 -3.820875 53.468592 29.085787 19.642768 14.308956 6.028156 -8.904925 -6.654335 -15.598979 -51.566504 -2.156600 -9.184900 26.375600 -1.055058 -1.303712 9.167869 3.423339 -1.114008 -4.998918 8.919141 0.958357 -14.850795 -5.585708 -0.698524 -20.155393 5.067982 2.262107 16.857080 2.077900 1.332500 12.446900 9.170562 -7.234570 1.354452 -94.035458 17.273161 19.993962 21.484423 -35.044147 -6.800536 0.208852 3.356308 -0.382004 27.189267 29.278617 12.417600 -7.125000 0.000000 0.000000 -3.019000 58.165100 -0.973000 -9.682150 6.806437 2.113632 72.375007 -11.434684 52.062235 -21.953445 34.745220 -5.679637 -0.000301 -3.383605 -13.432140 -28.877946 -25.440418 11.264200 7.125000 0.000000 0.000000 0.654100 -54.407000 -0.151200 
-38.814503 17.502748 2.336695 -175.061048 1.830344 -171.844846 20.152946 3.044407 -2.289445 -38.509412 -37.566388 15.944575 -11.662351 -2.613495 -3.105932 4.653164 -14.628943 -36.957106 0.392600 -4.023300 -11.142200 -24.282988 -2.942538 -3.807477 53.473722 29.038344 19.700250 14.322951 6.048286 -8.927745 -6.666976 -15.956409 -51.758505 -1.989200 -8.843500 25.307000 -0.952280 -1.372343 9.579990 3.380997 -1.147536 -5.132592 8.667739 0.957418 -15.413142 -5.221000 -0.661387 -20.062713 4.791260 2.262118 16.953345 1.868200 1.357600 12.508200 9.139321 -7.278086 1.358956 -93.746277 17.698146 20.161551 21.680267 -35.099145 -6.780074 0.051014 3.331172 -0.794110 25.372321 29.039271 11.475700 -7.125000 0.000000 0.000000 -4.821400 57.581400 -1.487600 -9.652265 6.858915 2.110344 72.744502 -11.894700 51.916977 -21.949812 34.742575 -5.670066 -0.013358 -3.377119 -12.744550 -28.611188 -25.283531 11.080500 7.125000 0.000000 0.000000 0.869000 -54.187800 -0.196200 
-38.813428 17.503178 2.333148 -175.017401 1.794575 -171.859550 20.146923 3.046119 -2.294805 -38.429818 -37.512547 15.873763 -11.696494 -2.534049 -2.935862 4.708873 -13.790777 -37.102417 0.464000 -4.369100 -12.117600 -24.316808 -2.947146 -3.819316 53.588976 28.987074 19.747696 14.367636 6.067752 -8.954803 -6.524178 -16.837954 -51.577134 -2.012900 -8.893000 25.461100 -0.981398 -1.350048 9.476674 3.410736 -1.133614 -5.096080 8.758925 0.971075 -15.272175 -5.063698 -0.605482 -20.005078 4.413202 2.280137 16.791846 1.620800 1.339100 12.419600 9.187342 -7.280468 1.352909 -93.791901 17.470662 20.128677 21.560792 -34.942881 -6.642547 -0.043847 3.309186 -0.605224 23.638666 28.417553 10.442600 -7.125000 0.000000 0.000000 -6.368900 56.625700 -1.820200 -9.636505 6.824817 2.106396 72.549513 -11.695909 52.441908 -21.990332 34.751318 -5.669622 0.000483 -3.374678 -13.269368 -28.695747 -25.199865 11.075300 7.125000 0.000000 0.000000 0.778200 -54.118700 -0.174400 
-38.813213 17.504361 2.330031 -175.004709 1.765328 -171.885698 20.148983 3.052476 -2.296387 -38.358984 -37.341903 15.750231 -11.750346 -2.488462 -2.840252 4.721285 -12.695504 -37.158672 0.553000 -4.763800 -13.236000 -24.305833 -2.951904 -3.819237 53.613244 28.940216 19.785861 14.333297 6.072859 -8.959208 -6.699993 -15.858974 -51.821203 -1.944000 -8.748400 25.011300 -0.919724 -1.391824 9.596392 3.396432 -1.171062 -5.132159 8.633052 0.950402 -15.427064 -4.761257 -0.522858 -19.932548 4.074142 2.322423 16.735103 1.381200 1.358000 12.391400 9.198968 -7.296089 1.351060 -93.637323 17.508362 20.107533 21.530961 -34.851584 -6.576668 -0.111623 3.286560 -0.651202 22.650318 28.090142 9.890200 -7.125000 0.000000 0.000000 -7.241200 56.129200 -1.984000 -9.619574 6.826512 2.101658 72.678415 -11.742402 52.648449 -22.011330 34.769589 -5.664717 0.005551 -3.372453 -13.172410 -28.542910 -25.142185 10.984000 7.125000 0.000000 0.000000 0.914900 -54.028600 -0.203000 
-38.812676 17.505220 2.327559 -174.988739 1.735119 -171.907774 20.148458 3.054562 -2.295650 -38.315617 -37.292312 15.698547 -11.799490 -2.435870 -2.723201 4.767104 -11.516669 -37.347225 0.679200 -5.269400 -14.678600 -24.310285 -2.955188 -3.823333 53.645925 28.898567 19.808002 14.338753 6.076558 -8.960937 -6.708402 -15.874056 -51.852471 -1.926100 -8.710300 24.893300 -0.901966 -1.403891 9.664601 3.398649 -1.180145 -5.147302 8.588682 0.951207 -15.507891 -4.514539 -0.453415 -19.869050 3.710329 2.355005 16.641522 1.134300 1.362300 12.343900 9.220327 -7.310202 1.348227 -93.544981 17.464023 20.125841 21.473295 -34.754199 -6.505503 -0.167622 3.267205 -0.655440 21.773744 27.781498 9.404000 -7.125000 0.000000 0.000000 -7.998700 55.674500 -2.105000 -9.600471 6.819265 2.099113 72.737228 -11.750124 52.854295 -22.044904 34.793865 -5.664268 0.014188 -3.368982 -13.205932 -28.414626 -25.059641 10.891900 7.125000 0.000000 0.000000 1.023700 -53.918300 -0.224400 
-38.811816 17.505973 2.325839 -174.965311 1.699661 -171.930819 20.146682 3.057122 -2.297889 -38.255737 -37.227624 15.634989 -11.829238 -2.385002 -2.609772 4.768017 -10.796137 -37.347699 0.778600 -5.633800 -15.725500 -24.315977 -2.959159 -3.827210 53.674264 28.858764 19.809097 14.344134 6.067082 -8.940823 -6.716338 -15.849754 -51.863339 -1.930900 -8.720700 24.925600 -0.869088 -1.411783 9.718804 3.403202 -1.184992 -5.150767 8.547977 0.949319 -15.550290 -4.295573 -0.383562 -19.826660 3.343852 2.391553 16.530419 0.891600 1.362900 12.290100 9.245058 -7.324183 1.345490 -93.480278 17.379294 20.133898 21.412070 -34.662858 -6.439361 -0.216552 3.250115 -0.646226 20.993674 27.519279 8.984800 -7.125000 0.000000 0.000000 -8.669800 55.286700 -2.201600 -9.582098 6.806826 2.097161 72.786108 -11.731689 53.063966 -22.093075 34.835918 -5.670048 0.026911 -3.367375 -13.291802 -28.286298 -25.029170 10.824000 7.125000 0.000000 0.000000 1.143900 -53.862600 -0.249300 
-38.810956 17.506940 2.324549 -174.940724 1.658117 -171.959633 20.146574 3.061421 -2.304255 -38.176781 -37.088750 15.524198 -11.842756 -2.340611 -2.515670 4.717642 -10.573613 -37.130904 0.818800 -5.773800 -16.129600 -24.319284 -2.964018 -3.829285 53.687443 28.818164 19.792240 14.348837 6.045383 -8.899659 -6.727977 -15.792725 -51.873458 -1.951500 -8.764300 25.060900 -0.810498 -1.423176 9.789169 3.403309 -1.190769 -5.152652 8.482783 0.941264 -15.594994 -4.097075 -0.314831 -19.800251 2.987554 2.431720 16.416689 0.660200 1.362900 12.237800 9.267279 -7.340029 1.344183 -93.423721 17.300215 20.143475 21.370173 -34.598521 -6.393677 -0.253607 3.237809 -0.665175 20.436298 27.360095 8.700100 -7.125000 0.000000 0.000000 -9.155600 55.040600 -2.271500 -9.564768 6.793871 2.095363 72.857503 -11.717917 53.252962 -22.142163 34.884947 -5.678482 0.041446 -3.369020 -13.373440 -28.159017 -25.073220 10.790400 7.125000 0.000000 0.000000 1.279000 -53.884300 -0.279400 
-38.810311 17.508337 2.323797 -174.921048 1.611758 -171.994398 20.147230 3.065557 -2.309089 -38.122338 -36.989067 15.449593 -11.856027 -2.300570 -2.426163 4.678309 -10.317479 -36.957142 0.861200 -5.917700 -16.545900 -24.319505 -2.969351 -3.832624 53.683797 28.772706 19.765265 14.352492 6.015905 -8.843674 -6.743556 -15.702773 -51.884893 -1.980600 -8.825500 25.251000 -0.748874 -1.435487 9.876485 3.400943 -1.198070 -5.151861 8.408348 0.929430 -15.639183 -3.897081 -0.249021 -19.800814 2.638467 2.467309 16.307201 0.433600 1.360800 12.193600 9.286402 -7.355722 1.344486 -93.372251 17.231988 20.149828 21.352239 -34.566572 -6.371618 -0.276628 3.230947 -0.657740 20.104243 27.310829 8.548100 -7.125000 0.000000 0.000000 -9.460000 54.940700 -2.324900 -9.548179 6.781354 2.093603 72.938591 -11.700507 53.430596 -22.188818 34.934403 -5.687336 0.057563 -3.373024 -13.455311 -28.030136 -25.175245 10.782100 7.125000 0.000000 0.000000 1.428500 -53.965300 -0.314900 
